HIERARCHY
ROOT Hips
{
 OFFSET 0.000000 0.000000 0.000000
 CHANNELS 6 Xposition Yposition Zposition Yrotation Xrotation Zrotation
 JOINT Chest
 {
  OFFSET 0.000000 9.585900 0.002600
  CHANNELS 3 Yrotation Xrotation Zrotation
  JOINT Chest2
  {
   OFFSET 0.000000 9.601200 -0.005300
   CHANNELS 3 Yrotation Xrotation Zrotation
   JOINT Chest3
   {
    OFFSET 0.000000 9.561800 0.000000
    CHANNELS 3 Yrotation Xrotation Zrotation
    JOINT Chest4
    {
     OFFSET 0.000000 9.552100 0.000000
     CHANNELS 3 Yrotation Xrotation Zrotation
     JOINT Neck
     {
      OFFSET 0.000000 14.453000 0.000000
      CHANNELS 3 Yrotation Xrotation Zrotation
      JOINT Head
      {
       OFFSET 0.000000 8.936500 -0.011300
       CHANNELS 3 Yrotation Xrotation Zrotation
       End Site
       {
        OFFSET 0.000000 17.073600 -0.006000
       }
      }
     }
     JOINT RightCollar
     {
      OFFSET -2.921100 9.558500 0.000000
      CHANNELS 3 Yrotation Xrotation Zrotation
      JOINT RightShoulder
      {
       OFFSET -13.519700 0.000000 0.000000
       CHANNELS 3 Yrotation Xrotation Zrotation
       JOINT RightElbow
       {
        OFFSET 0.000000 -29.696600 0.000000
        CHANNELS 3 Yrotation Xrotation Zrotation
        JOINT RightWrist
        {
         OFFSET 0.000000 -24.004700 0.000000
         CHANNELS 3 Yrotation Xrotation Zrotation
         End Site
         {
          OFFSET 0.000000 -17.728500 0.000000
         }
        }
       }
      }
     }
     JOINT LeftCollar
     {
      OFFSET 2.921100 9.558500 0.000000
      CHANNELS 3 Yrotation Xrotation Zrotation
      JOINT LeftShoulder
      {
       OFFSET 13.519700 0.000000 0.000000
       CHANNELS 3 Yrotation Xrotation Zrotation
       JOINT LeftElbow
       {
        OFFSET 0.000000 -29.696600 0.000000
        CHANNELS 3 Yrotation Xrotation Zrotation
        JOINT LeftWrist
        {
         OFFSET 0.000000 -24.004700 0.000000
         CHANNELS 3 Yrotation Xrotation Zrotation
         End Site
         {
          OFFSET 0.000000 -17.728500 0.000000
         }
        }
       }
      }
     }
    }
   }
  }
 }
 JOINT RightHip
 {
  OFFSET -7.771700 -0.012900 -0.001300
  CHANNELS 3 Yrotation Xrotation Zrotation
  JOINT RightKnee
  {
   OFFSET 0.000000 -40.869800 0.001200
   CHANNELS 3 Yrotation Xrotation Zrotation
   JOINT RightAnkle
   {
    OFFSET 0.000000 -39.717900 0.002100
    CHANNELS 3 Yrotation Xrotation Zrotation
    JOINT RightToe
    {
     OFFSET 0.000000 -4.965400 11.033500
     CHANNELS 3 Yrotation Xrotation Zrotation
     End Site
     {
      OFFSET 0.000000 -1.423100 5.872300
     }
    }
   }
  }
 }
 JOINT LeftHip
 {
  OFFSET 7.771700 -0.012900 -0.001300
  CHANNELS 3 Yrotation Xrotation Zrotation
  JOINT LeftKnee
  {
   OFFSET 0.000000 -40.869800 0.001200
   CHANNELS 3 Yrotation Xrotation Zrotation
   JOINT LeftAnkle
   {
    OFFSET 0.000000 -39.717900 0.002100
    CHANNELS 3 Yrotation Xrotation Zrotation
    JOINT LeftToe
    {
     OFFSET 0.000000 -4.965400 11.033500
     CHANNELS 3 Yrotation Xrotation Zrotation
     End Site
     {
      OFFSET 0.000000 -1.423100 5.872300
     }
    }
   }
  }
 }
}
MOTION
Frames: 15
Frame Time: 0.008333
-49.701733 56.285618 -16.133154 -177.154547 -13.483376 -0.051500 -0.678170 15.700828 -0.383896 -0.020763 1.543151 0.044675 -0.034158 2.587521 0.074666 -0.136706 14.112483 0.414066 1.436980 12.943881 3.098944 0.816073 -12.084743 2.945593 0.726291 0.450320 1.125402 0.970544 -8.630673 -7.700129 -80.394978 -55.284231 115.109637 -15.729713 -2.624793 -3.652465 -7.350253 -1.745233 1.242846 3.193066 -13.643929 7.847075 58.542636 -49.794882 -102.761079 7.332110 7.842633 -5.507855 -2.317935 -62.100995 10.328655 -31.962672 85.240565 -36.284147 -10.164004 -19.426242 14.588743 0.310383 -0.297656 0.034489 18.286031 -55.948787 -22.427153 68.262748 71.378525 69.391647 -7.272380 -15.091566 0.479540 0.332895 0.906622 0.145271
-49.702742 56.287357 -16.132794 -177.168067 -13.528520 -0.081684 -0.662130 15.734600 -0.368209 -0.016985 1.549750 0.052923 -0.037895 2.586370 0.066011 -0.136296 14.120083 0.412602 1.451310 12.858213 3.186485 0.810968 -12.172212 3.038149 0.735256 0.436585 1.118781 0.969084 -8.634735 -7.702031 -80.410136 -55.288760 115.103584 -15.692138 -2.624899 -3.678684 -7.337551 -1.724745 1.257764 3.188420 -13.603838 7.767490 58.526565 -49.791469 -102.711976 7.314628 7.772570 -5.483885 -2.398454 -62.042496 10.404778 -31.879960 85.224320 -36.204871 -10.122590 -19.402125 14.589444 0.299626 -0.322470 0.027523 18.248732 -55.915146 -22.362730 68.266467 71.376211 69.408107 -7.276970 -15.086626 0.476056 0.338897 0.899855 0.147632
-49.706094 56.288813 -16.130912 -177.184813 -13.561371 -0.097989 -0.646467 15.757420 -0.365238 -0.014549 1.554913 0.059977 -0.038759 2.587244 0.062330 -0.144928 14.128368 0.388321 1.475260 12.774564 3.291373 0.802740 -12.254556 3.131014 0.751144 0.423125 1.128668 0.966645 -8.633385 -7.691300 -80.418535 -55.301777 115.092850 -15.690678 -2.615033 -3.683404 -7.323074 -1.710699 1.290243 3.185206 -13.574881 7.709274 58.509408 -49.793782 -102.673114 7.312680 7.702158 -5.446704 -2.453461 -61.993360 10.441936 -31.517197 85.218663 -35.843814 -10.075959 -19.396738 14.585204 0.284397 -0.327800 0.043479 18.240950 -55.887957 -22.328917 68.265532 71.373517 69.418643 -7.286349 -15.077874 0.476404 0.346674 0.890038 0.150291
-49.709200 56.290396 -16.129659 -177.201693 -13.594276 -0.116690 -0.627569 15.781557 -0.358034 -0.019899 1.548745 0.044389 -0.029473 2.601134 0.088603 -0.145045 14.130633 0.384246 1.479735 12.735318 3.334674 0.787795 -12.367556 3.259022 0.754924 0.419251 1.113820 0.961710 -8.637259 -7.680483 -80.419940 -55.313093 115.076851 -15.693330 -2.603783 -3.689755 -7.321632 -1.704398 1.296825 3.183825 -13.567237 7.690940 58.507897 -49.801694 -102.663592 7.354244 7.639070 -5.388439 -2.488548 -61.950820 10.478126 -31.373392 85.207938 -35.697746 -10.048886 -19.371956 14.585953 0.277593 -0.348584 0.034958 18.228716 -55.859369 -22.290475 68.256728 71.372259 69.425275 -7.298748 -15.076923 0.470402 0.356653 0.887822 0.158948
-49.713407 56.292055 -16.129005 -177.223326 -13.627611 -0.128056 -0.602839 15.805930 -0.356383 -0.019294 1.550405 0.044463 -0.031995 2.604036 0.088727 -0.139440 14.136235 0.391734 1.483977 12.697607 3.377245 0.772343 -12.472380 3.386430 0.764404 0.417639 1.098517 0.942242 -8.647472 -7.677686 -80.403922 -55.314990 115.055843 -15.700010 -2.596146 -3.701337 -7.318590 -1.698080 1.303610 3.161459 -13.501406 7.564852 58.473243 -49.901630 -102.600702 7.347571 7.551720 -5.328992 -2.509174 -61.911305 10.505231 -31.478034 85.186409 -35.796625 -10.024418 -19.340480 14.584658 0.305878 -0.365227 0.047164 18.251043 -55.827965 -22.292625 68.261425 71.368395 69.459895 -7.281067 -15.064377 0.469664 0.346724 0.871376 0.153593
-49.711531 56.293959 -16.130089 -177.284003 -13.666572 -0.166618 -0.527651 15.835429 -0.316506 -0.018316 1.552235 0.044480 -0.033948 2.607725 0.089604 -0.124115 14.143984 0.378243 1.489973 12.576612 3.531850 0.763360 -12.488062 3.424557 0.759987 0.411103 1.108739 0.930474 -8.655365 -7.672670 -80.365115 -55.320019 114.997283 -15.708810 -2.604112 -3.683946 -7.326354 -1.689532 1.334185 3.137658 -13.465416 7.483627 58.400661 -49.913298 -102.502363 7.291354 7.449643 -5.278516 -2.559697 -61.864469 10.611218 -31.708734 85.149141 -36.016052 -9.965864 -19.312695 14.577705 0.292600 -0.377335 0.048639 18.238754 -55.805229 -22.208154 68.256645 71.361473 69.472006 -7.231222 -15.000722 0.476028 0.300515 0.809285 0.131231
-49.714226 56.295044 -16.128213 -177.294469 -13.685341 -0.187970 -0.509372 15.844861 -0.306255 -0.017925 1.557689 0.051650 -0.027691 2.601949 0.066941 -0.118158 14.155029 0.402160 1.497344 12.498784 3.623834 0.748088 -12.537308 3.499167 0.769327 0.405707 1.094909 0.902985 -8.660981 -7.662551 -80.342946 -55.306951 114.980716 -15.703306 -2.600009 -3.693244 -7.329553 -1.686493 1.342466 3.115858 -13.441886 7.426746 58.371579 -49.944190 -102.453514 7.280498 7.369451 -5.213587 -2.597900 -61.838759 10.653908 -31.689448 85.132258 -35.994532 -9.944981 -19.275646 14.571375 0.260985 -0.388931 0.068933 18.227211 -55.793837 -22.184082 68.255250 71.352512 69.486349 -7.227640 -14.988815 0.477309 0.297031 0.800302 0.126332
-49.717446 56.296182 -16.127116 -177.302083 -13.705878 -0.205759 -0.495960 15.861066 -0.293159 -0.017172 1.558462 0.051552 -0.026973 2.604012 0.066968 -0.112137 14.158476 0.402189 1.501029 12.441517 3.696768 0.732575 -12.599407 3.587449 0.786340 0.394473 1.068032 0.869725 -8.654159 -7.650000 -80.321304 -55.292102 114.953825 -15.697256 -2.591754 -3.699186 -7.333229 -1.684407 1.350634 3.103390 -13.433333 7.399623 58.335124 -49.948634 -102.421128 7.272073 7.295030 -5.151104 -2.630428 -61.811410 10.689543 -31.605734 85.122301 -35.910669 -9.941499 -19.241004 14.567270 0.264213 -0.403453 0.078902 18.212740 -55.780905 -22.159981 68.260949 71.344799 69.503684 -7.228007 -14.975917 0.477155 0.297518 0.789036 0.125379
-49.720720 56.297335 -16.126565 -177.308093 -13.726578 -0.222141 -0.484747 15.877678 -0.281887 -0.012743 1.552257 0.033069 -0.029264 2.613314 0.085526 -0.104160 14.166597 0.394800 1.500793 12.407756 3.745029 0.713976 -12.679626 3.703006 0.782939 0.385749 1.078906 0.865320 -8.651823 -7.651336 -80.279805 -55.301448 114.895755 -15.686290 -2.596889 -3.696395 -7.335962 -1.689088 1.362624 3.085666 -13.424001 7.377574 58.289619 -49.958222 -102.393325 7.269485 7.226848 -5.093739 -2.669741 -61.780218 10.728312 -31.477478 85.111604 -35.782604 -9.954543 -19.214251 14.562247 0.256485 -0.409300 0.086053 18.189197 -55.767258 -22.125848 68.262969 71.341664 69.509970 -7.234835 -14.968295 0.477114 0.306060 0.782906 0.127788
-49.724594 56.298359 -16.125800 -177.311526 -13.742841 -0.233751 -0.473488 15.886641 -0.283037 -0.015331 1.558244 0.044434 -0.025012 2.612007 0.074413 -0.096107 14.173604 0.396944 1.497809 12.377785 3.792503 0.694797 -12.750448 3.811632 0.783951 0.372219 1.074557 0.852176 -8.642527 -7.632747 -80.267932 -55.302867 114.877817 -15.674822 -2.585400 -3.712845 -7.344337 -1.699969 1.376836 3.049596 -13.398182 7.304794 58.259376 -50.026459 -102.336819 7.269247 7.194451 -5.066246 -2.707933 -61.751599 10.754793 -31.373354 85.097685 -35.680751 -9.939046 -19.196487 14.554279 0.245441 -0.409735 0.088941 18.186135 -55.756657 -22.120248 68.273179 71.334635 69.531182 -7.229084 -14.951941 0.480722 0.305211 0.769352 0.126276
-49.728281 56.299322 -16.125000 -177.325101 -13.755565 -0.242379 -0.450812 15.891279 -0.281335 -0.014243 1.560185 0.044546 -0.023347 2.614871 0.074490 -0.068938 14.180248 0.386024 1.491910 12.285426 3.933062 0.672679 -12.751360 3.836934 0.772664 0.356575 1.072281 0.838236 -8.629843 -7.600859 -80.248235 -55.299238 114.841500 -15.669076 -2.563079 -3.726417 -7.375276 -1.705599 1.408088 3.023539 -13.388751 7.268784 58.182270 -50.036069 -102.291705 7.269156 7.136463 -5.018509 -2.719160 -61.733867 10.773345 -31.352789 85.083070 -35.658051 -9.928134 -19.160593 14.545688 0.253912 -0.420667 0.096700 18.189547 -55.747408 -22.118154 68.280958 71.327685 69.549064 -7.206622 -14.943287 0.483137 0.291439 0.760900 0.119570
-49.729996 56.300419 -16.124930 -177.344194 -13.768933 -0.260243 -0.405722 15.893372 -0.281320 -0.024051 1.567502 0.059935 -0.005158 2.610408 0.057310 -0.055661 14.185091 0.396312 1.478412 12.245625 4.008330 0.647049 -12.791235 3.916467 0.753105 0.349803 1.075456 0.835995 -8.617431 -7.571972 -80.223318 -55.295762 114.804711 -15.663994 -2.560665 -3.720698 -7.404890 -1.706660 1.437779 2.998611 -13.385433 7.250857 58.107845 -50.022587 -102.261038 7.271409 7.090274 -4.981999 -2.745682 -61.715392 10.816252 -31.348301 85.067569 -35.652418 -9.910044 -19.116752 14.538628 0.262107 -0.436994 0.101147 18.180475 -55.740463 -22.091953 68.279155 71.330546 69.564206 -7.197629 -14.941218 0.479314 0.295600 0.758424 0.118877
-49.732027 56.300599 -16.121465 -177.369064 -13.758222 -0.272843 -0.364252 15.874180 -0.272620 -0.022155 1.570346 0.057531 -0.002095 2.607555 0.058624 -0.052988 14.190577 0.402594 1.478288 12.207207 4.061871 0.620689 -12.825086 3.991362 0.744192 0.344554 1.072543 0.832999 -8.607085 -7.546807 -80.199326 -55.300545 114.777122 -15.664389 -2.553051 -3.710766 -7.410319 -1.727578 1.447605 2.962308 -13.374318 7.245332 58.074010 -50.016275 -102.229045 7.272811 7.072429 -4.968336 -2.765846 -61.720452 10.853828 -31.313649 85.040819 -35.613838 -9.892495 -19.070835 14.528229 0.272878 -0.444363 0.105137 18.190326 -55.750583 -22.080613 68.254801 71.327077 69.547871 -7.184980 -14.948622 0.483145 0.291639 0.769683 0.116029
-49.736391 56.301352 -16.121011 -177.374422 -13.763255 -0.276239 -0.347295 15.868055 -0.277215 -0.007394 1.560886 0.043427 -0.011648 2.616060 0.072616 -0.048945 14.199046 0.406275 1.476612 12.170200 4.113887 0.595127 -12.852828 4.059016 0.731908 0.344837 1.080919 0.832510 -8.605744 -7.538582 -80.169776 -55.300348 114.755050 -15.662119 -2.546864 -3.702677 -7.415029 -1.746316 1.465746 2.924737 -13.370346 7.239012 58.002395 -49.991797 -102.221815 7.265529 7.023101 -4.902734 -2.777637 -61.707413 10.862452 -31.260313 85.027438 -35.560847 -9.895464 -19.041841 14.529894 0.270073 -0.444857 0.104127 18.194151 -55.742115 -22.085714 68.235501 71.319625 69.536455 -7.178310 -14.945830 0.486966 0.287054 0.772295 0.118498
-49.741308 56.302183 -16.122092 -177.376278 -13.774561 -0.277025 -0.338863 15.870361 -0.283011 -0.006225 1.560304 0.043436 -0.006974 2.611898 0.069614 -0.030021 14.198908 0.406723 1.460198 12.143859 4.168011 0.571675 -12.875633 4.118749 0.711935 0.344804 1.075413 0.823539 -8.594242 -7.509975 -80.134216 -55.302862 114.748733 -15.655080 -2.559644 -3.715490 -7.439302 -1.755563 1.492257 2.892572 -13.367168 7.235560 57.941632 -49.970973 -102.232340 7.273969 6.976934 -4.865726 -2.791092 -61.684917 10.860997 -31.133111 85.017571 -35.432953 -9.894895 -19.023046 14.530745 0.268548 -0.449681 0.098460 18.198107 -55.728318 -22.094459 68.228604 71.312372 69.535947 -7.170757 -14.938261 0.494248 0.284192 0.767136 0.114532
